<svg xmlns="http://www.w3.org/2000/svg" width="1881.395" height="1625.874" viewBox="0 0 1881.395 1625.874">
  <path id="Path_1" data-name="Path 1" d="M2490.72,886.536V836.061l9.949-60.913,17.336-68.345,37.1-85.708,50.93-76.33,58.472-61,73.34-59.8,93.74-59.733L2951.3,308.59l134.444-40.433,133.2-22.72L3330.5,234.454h91.661L3551.1,245.436l153.412,37.271L3859.1,328.581l144.636,61.6,105.406,65.8,81.254,66.261,80.571,98.848,59.611,117.216,19.3,70.632,11.762,77.594v188.613l-11.762,65.348-19.3,74.643-24.507,65.606-25.785,63.31-37.252,64.325-52.639,68.465-43.854,61.835-99.194,91.674-96.76,79.89-91.488,64.9-119.206,52.7-128.827,31.489H3505.734l-123.261-31.489-163.525-52.7-166.123-64.9-197.111-79.89-137.542-91.674-112.138-120.72-50.93-93.6-37.1-74.007-17.336-70.549-9.949-51.139-9.467-81.6V971.184Z" transform="translate(-2480.754 -233.954)" fill="#a5a5a5" stroke="#707070" stroke-width="1"/>
</svg>
